<svg width="113" height="110" viewBox="0 0 113 110" fill="none" xmlns="http://www.w3.org/2000/svg">
<path d="M25.5 14.5C25.5 20.5752 20.5751 25.5 14.5 25.5C8.42487 25.5 3.5 20.5752 3.5 14.5C3.5 8.42487 8.42487 3.5 14.5 3.5C20.5751 3.5 25.5 8.42487 25.5 14.5Z" stroke="black" stroke-width="7"/>
<path d="M112.113 48.918H92.6701C92.315 46.4026 91.59 44.1683 90.495 42.2152C89.4001 40.2325 87.9944 38.5457 86.2781 37.1548C84.5617 35.764 82.579 34.6986 80.3299 33.9588C78.1104 33.219 75.6986 32.8491 73.0945 32.8491C68.3892 32.8491 64.2906 34.018 60.7987 36.3558C57.3067 38.6641 54.599 42.0376 52.6754 46.4766C50.7519 50.8859 49.7901 56.2422 49.7901 62.5455C49.7901 69.0263 50.7519 74.4714 52.6754 78.8807C54.6286 83.29 57.3511 86.6192 60.843 88.8683C64.335 91.1173 68.3744 92.2418 72.9613 92.2418C75.5359 92.2418 77.9181 91.9015 80.108 91.2209C82.3274 90.5402 84.2953 89.5489 86.0117 88.2468C87.7281 86.9151 89.1486 85.3023 90.2731 83.4084C91.4272 81.5144 92.2262 79.3542 92.6701 76.9276L112.113 77.0163C111.609 81.1889 110.352 85.2135 108.339 89.0902C106.357 92.9373 103.679 96.3848 100.305 99.4329C96.9611 102.451 92.966 104.848 88.32 106.624C83.7035 108.37 78.4804 109.243 72.6506 109.243C64.5421 109.243 57.2919 107.408 50.8999 103.739C44.5374 100.069 39.5066 94.7572 35.8075 87.8029C32.138 80.8486 30.3033 72.4294 30.3033 62.5455C30.3033 52.6319 32.1676 44.1979 35.8963 37.2436C39.625 30.2893 44.6854 24.9922 51.0774 21.3523C57.4695 17.6828 64.6605 15.848 72.6506 15.848C77.9181 15.848 82.8009 16.5878 87.299 18.0675C91.8267 19.5471 95.8365 21.7074 99.3285 24.5483C102.82 27.3596 105.661 30.8072 107.851 34.891C110.071 38.9748 111.491 43.6504 112.113 48.918Z" fill="black"/>
</svg>
