<svg width="110" height="110" viewBox="0 0 110 110" fill="none" xmlns="http://www.w3.org/2000/svg">
<path d="M25.5 14.5C25.5 20.5752 20.5751 25.5 14.5 25.5C8.42487 25.5 3.5 20.5752 3.5 14.5C3.5 8.42487 8.42487 3.5 14.5 3.5C20.5751 3.5 25.5 8.42487 25.5 14.5Z" stroke="black" stroke-width="7"/>
<path d="M109.494 46.6541H95.6442C95.1115 43.6948 94.1201 41.0907 92.6701 38.8416C91.2201 36.5926 89.4445 34.6838 87.3434 33.1154C85.2423 31.547 82.8897 30.3633 80.2855 29.5643C77.7109 28.7653 74.9736 28.3658 72.0735 28.3658C66.8356 28.3658 62.1451 29.6826 58.0021 32.3164C53.8887 34.9502 50.6335 38.812 48.2365 43.902C45.8691 48.9919 44.6854 55.2064 44.6854 62.5455C44.6854 69.9437 45.8691 76.1877 48.2365 81.2777C50.6335 86.3677 53.9035 90.2147 58.0465 92.8189C62.1895 95.4231 66.8504 96.7251 72.0291 96.7251C74.8996 96.7251 77.6222 96.3404 80.1967 95.571C82.8009 94.772 85.1535 93.6031 87.2546 92.0643C89.3557 90.5254 91.1313 88.6463 92.5813 86.4268C94.061 84.1778 95.0819 81.6032 95.6442 78.7031L109.494 78.7475C108.754 83.216 107.319 87.3294 105.188 91.0877C103.087 94.8164 100.379 98.042 97.0646 100.765C93.7798 103.458 90.0215 105.544 85.7898 107.023C81.558 108.503 76.9415 109.243 71.9403 109.243C64.0687 109.243 57.0552 107.379 50.8999 103.65C44.7446 99.8916 39.8913 94.5205 36.3402 87.5366C32.8187 80.5527 31.0579 72.2223 31.0579 62.5455C31.0579 52.839 32.8335 44.5086 36.3846 37.5543C39.9357 30.5704 44.7889 25.2141 50.9442 21.4854C57.0996 17.7272 64.0982 15.848 71.9403 15.848C76.764 15.848 81.2621 16.5434 85.4347 17.9343C89.6368 19.2956 93.4099 21.3079 96.7539 23.9712C100.098 26.605 102.865 29.8306 105.055 33.6481C107.245 37.436 108.724 41.7713 109.494 46.6541Z" fill="black"/>
</svg>
