<svg width="125" height="234" viewBox="0 0 125 234" fill="none" xmlns="http://www.w3.org/2000/svg">
<path d="M15.57 46.71C15.57 34.3217 20.4912 22.4409 29.2511 13.681C38.0109 4.92122 49.8917 0 62.28 0C74.6683 0 86.5491 4.92122 95.3089 13.681C104.069 22.4409 108.99 34.3217 108.99 46.71V130.072C116.918 139.061 122.083 150.147 123.867 161.999C125.65 173.851 123.976 185.966 119.044 196.89C114.113 207.815 106.134 217.084 96.0654 223.586C85.9967 230.088 74.2656 233.546 62.28 233.546C50.2944 233.546 38.5633 230.088 28.4946 223.586C18.4258 217.084 10.447 207.815 5.51569 196.89C0.584347 185.966 -1.09007 173.851 0.693352 161.999C2.47678 150.147 7.64228 139.061 15.57 130.072V46.71ZM62.28 23.355C56.0859 23.355 50.1454 25.8156 45.7655 30.1955C41.3856 34.5754 38.925 40.5159 38.925 46.71V139.741L35.3439 143.166C29.7378 148.543 25.8687 155.474 24.2342 163.068C22.5998 170.662 23.2748 178.571 26.1723 185.778C29.0699 192.986 34.0576 199.161 40.4937 203.51C46.9298 207.859 54.52 210.183 62.2878 210.183C70.0556 210.183 77.6458 207.859 84.0819 203.51C90.518 199.161 95.5056 192.986 98.4032 185.778C101.301 178.571 101.976 170.662 100.341 163.068C98.7069 155.474 94.8377 148.543 89.2316 143.166L85.635 139.756V46.71C85.635 40.5159 83.1744 34.5754 78.7945 30.1955C74.4146 25.8156 68.4741 23.355 62.28 23.355ZM70.065 85.635C70.065 83.5703 69.2448 81.5901 67.7848 80.1301C66.3248 78.6702 64.3447 77.85 62.28 77.85C60.2153 77.85 58.2351 78.6702 56.7752 80.1301C55.3152 81.5901 54.495 83.5703 54.495 85.635V149.238C49.3007 151.075 44.9229 154.688 42.1353 159.44C39.3477 164.193 38.3297 169.777 39.2614 175.207C40.193 180.637 43.0142 185.563 47.2265 189.114C51.4387 192.665 56.7707 194.613 62.28 194.613C67.7893 194.613 73.1213 192.665 77.3335 189.114C81.5458 185.563 84.367 180.637 85.2986 175.207C86.2303 169.777 85.2123 164.193 82.4247 159.44C79.6371 154.688 75.2592 151.075 70.065 149.238V85.635Z" fill="black"/>
</svg>
